{"title":"King.Of.Kings.1961.1080p.BluRay.x264-KaKa","uid":6340048,"size":12967589071,"categoryP":"video","categoryS":"hd___movies","magnet":"?xt=urn:btih:ba0731010a9ad5a2241c8ca73f022703a8256ebd&amp;dn=King.Of.Kings.1961.1080p.BluRay.x264-KaKa&amp;tr=udp%3A%2F%2Ftracker.openbittorrent.com%3A80&amp;tr=udp%3A%2F%2Fopen.demonii.com%3A1337&amp;tr=udp%3A%2F%2Ftracker.coppersurfer.tk%3A6969&amp;tr=udp%3A%2F%2Fexodus.desync.com%3A6969","seeders":0,"leechers":1,"uploader":"Wind8Water","files":-1,"time":1303616830,"description":"When the focus is fixed very simply on the figure of Jeffrey Hunter as Jesus\nChrist and on the acting of a few familiar episodes in the Saviour's life,\nthere is a certain photographic reverence and purely pictorial eloquence in\nSamuel Bronston's elaborate screen biography of the Messiah, &quot;King of Kings&quot;.\n\n &lt;a href=&quot;\nhttp://en.wikipedia.org/wiki/King_of_Kings_%281961_film%29&quot; rel=&quot;nofollow&quot; target=&quot;_NEW&quot;&gt;\nhttp://en.wikipedia.org/wiki/King_of_Kings_%281961_film%29&lt;/a&gt;\n &lt;a href=&quot;\nhttp://www.imdb.com/title/tt0055047/&quot; rel=&quot;nofollow&quot; target=&quot;_NEW&quot;&gt;\nhttp://www.imdb.com/title/tt0055047/&lt;/a&gt;\n\n\nR E L E A S E    I N F O\n\nRELEASE..... 11/04/05\nRIPPER..... KaKa\nCOUNTRY..... USA\nIMDb RATING..... 6.9/10 (2,234 votes)\nFRAME RATE..... 23.976Fps\nVIDEO CODEC..... X264 8552K\nAUDIO CODEC..... DTS 1536K\nRESOLUTION..... 1920x816\nRUNTIME..... 171MiN\n\nGENRE..... Biography | Drama\n\nLANGUAGE..... English\n\n\nSubtitles (not embedded): English, English for hearing impaired, Romanian,\n                          Spanish\n\nScreenshots &amp; Sample included\n\n\nMedia Info\n\nFormat                            : Matroska\n File size                        : 12.0 GiB\n Duration                         : 2h 50mn\n Overall bit rate                 : 10.1 Mbps\n Encoded date                     : UTC 2011-04-05 23:42:33\n Writing application              : mkvmerge v4.5.0 ('Speed of Light')\n                                    built on Feb  1 2011 02:10:32\n Writing library                  : libebml v1.2.0 + libmatroska v1.1.0\n\nVideo\n Format                           : AVC\n Format profile                   : &lt;a class=&quot;__cf_email__&quot; href=&quot;/cdn-cgi/l/email-protection&quot; data-cfemail=&quot;430b2a242b030f776d72&quot;&gt;[email&amp;#160;protected]&lt;/a&gt;&lt;script cf-hash='f9e31' type=&quot;text/javascript&quot;&gt;\n/* &lt;![CDATA[ */!function(){try{var t=&quot;currentScript&quot;in document?document.currentScript:function(){for(var t=document.getElementsByTagName(&quot;script&quot;),e=t.length;e--;)if(t[e].getAttribute(&quot;cf-hash&quot;))return t[e]}();if(t&amp;&amp;t.previousSibling){var e,r,n,i,c=t.previousSibling,a=c.getAttribute(&quot;data-cfemail&quot;);if(a){for(e=&quot;&quot;,r=parseInt(a.substr(0,2),16),n=2;a.length-n;n+=2)i=parseInt(a.substr(n,2),16)^r,e+=String.fromCharCode(i);e=document.createTextNode(e),c.parentNode.replaceChild(e,c)}}}catch(u){}}();/* ]]&gt; */&lt;/script&gt;\n Format settings, CABAC           : Yes\n Format settings, ReFrames        : 5 frames\n Bit rate                         : 8 552 Kbps\n Width                            : 1 920 pixels\n Height                           : 816 pixels\n Display aspect ratio             : 2.35:1\n Frame rate                       : 23.976 fps\n Color space                      : YUV\n Chroma subsampling               : 4:2:0\n Bit depth                        : 8 bits\n Scan type                        : Progressive\n Bits/(Pixel*Frame)               : 0.228\n Stream size                      : 9.97 GiB (83%)\n Writing library                  : x264 core 114 r1924 08d04a4\n Language                         : English\n\nAudio\n Format                           : DTS\n Bit rate mode                    : Constant\n Bit rate                         : 1 510 Kbps\n Channel(s)                       : 6 channels\n Channel positions                : Front: L C R, Side: L R, LFE\n Sampling rate                    : 48.0 KHz\n Bit depth                        : 24 bits\n Compression mode                 : Lossy\n Stream size                      : 1.80 GiB (15%)\n Language                         : English\n\n\n\n                                Enjoy &amp; Please Seed  !\t\t","torrent":{"xt":"urn:btih:ba0731010a9ad5a2241c8ca73f022703a8256ebd","amp;dn":"King.Of.Kings.1961.1080p.BluRay.x264-KaKa","amp;tr":["udp%3A%2F%2Ftracker.openbittorrent.com%3A80","udp%3A%2F%2Fopen.demonii.com%3A1337","udp%3A%2F%2Ftracker.coppersurfer.tk%3A6969","udp%3A%2F%2Fexodus.desync.com%3A6969"],"infoHash":"ba0731010a9ad5a2241c8ca73f022703a8256ebd","infoHashBuffer":{"type":"Buffer","data":[186,7,49,1,10,154,213,162,36,28,140,167,63,2,39,3,168,37,110,189]},"announce":[],"urlList":[]}}